<svg width="568" height="192" viewBox="0 0 568 192" fill="none" xmlns="http://www.w3.org/2000/svg">
<path d="M76.5 31L142.751 151.75H10.2491L76.5 31Z" fill="#BB5C5C"/>
<path opacity="0.8" d="M101.5 31L167.751 151.75H35.2491L101.5 31Z" fill="#556F49"/>
<path opacity="0.7" d="M126.5 31L192.751 151.75H60.2491L126.5 31Z" fill="#949042"/>
<path d="M260.014 151L230.763 104.98H217.453V151H207.753V43.1699H241.967C245.626 43.1699 249.06 43.8717 252.269 45.2754C255.477 46.6289 258.284 48.5088 260.69 50.915C263.097 53.3213 264.977 56.1536 266.33 59.4121C267.734 62.6204 268.436 66.0544 268.436 69.7139V78.4365C268.436 82.096 267.734 85.555 266.33 88.8135C264.977 92.0218 263.097 94.8291 260.69 97.2354C258.284 99.6416 255.477 101.547 252.269 102.95C249.06 104.304 245.626 104.98 241.967 104.98L271.218 151H260.014ZM258.735 69.7139C258.735 67.3076 258.284 65.0768 257.382 63.0215C256.479 60.916 255.251 59.0863 253.697 57.5322C252.143 55.9281 250.313 54.6748 248.208 53.7725C246.153 52.8701 243.922 52.4189 241.516 52.4189H217.453V95.7314H241.516C243.922 95.7314 246.153 95.2803 248.208 94.3779C250.313 93.4756 252.143 92.2474 253.697 90.6934C255.251 89.0892 256.479 87.2594 257.382 85.2041C258.284 83.0986 258.735 80.8428 258.735 78.4365V69.7139ZM348.895 126.035C348.895 129.695 348.193 133.129 346.789 136.337C345.436 139.545 343.556 142.353 341.149 144.759C338.743 147.165 335.936 149.07 332.728 150.474C329.519 151.827 326.085 152.504 322.426 152.504H314.756C311.096 152.504 307.637 151.827 304.379 150.474C301.171 149.07 298.363 147.165 295.957 144.759C293.551 142.353 291.646 139.545 290.242 136.337C288.889 133.129 288.212 129.695 288.212 126.035V68.1348C288.212 64.4753 288.889 61.0413 290.242 57.833C291.646 54.6247 293.551 51.8174 295.957 49.4111C298.363 47.0049 301.171 45.125 304.379 43.7715C307.637 42.3678 311.096 41.666 314.756 41.666H322.426C326.085 41.666 329.519 42.3678 332.728 43.7715C335.936 45.125 338.743 47.0049 341.149 49.4111C343.556 51.8174 345.436 54.6247 346.789 57.833C348.193 61.0413 348.895 64.4753 348.895 68.1348V126.035ZM339.194 68.1348C339.194 65.7285 338.743 63.4977 337.841 61.4424C336.938 59.3369 335.71 57.5072 334.156 55.9531C332.602 54.3991 330.772 53.1709 328.667 52.2686C326.612 51.3662 324.381 50.915 321.975 50.915H315.207C312.801 50.915 310.545 51.3662 308.439 52.2686C306.384 53.1709 304.554 54.3991 302.95 55.9531C301.396 57.5072 300.168 59.3369 299.266 61.4424C298.363 63.4977 297.912 65.7285 297.912 68.1348V126.035C297.912 128.441 298.363 130.697 299.266 132.803C300.168 134.858 301.396 136.688 302.95 138.292C304.554 139.846 306.384 141.074 308.439 141.977C310.545 142.879 312.801 143.33 315.207 143.33H321.975C324.381 143.33 326.612 142.879 328.667 141.977C330.772 141.074 332.602 139.846 334.156 138.292C335.71 136.688 336.938 134.858 337.841 132.803C338.743 130.697 339.194 128.441 339.194 126.035V68.1348ZM412.51 125.885H378.371L371.303 151H361.227L392.809 43.1699H397.922L429.654 151H419.653L412.51 125.885ZM381.003 116.636H409.953L395.741 66.9316L395.44 62.9463L395.14 66.9316L381.003 116.636ZM509.888 151V77.083L509.211 81.6699L484.171 151H479.058L453.792 81.6699L453.19 77.083V151H443.49V43.1699H448.528L481.238 131.6L481.539 135.585L481.84 131.6L514.475 43.1699H519.588V151H509.888Z" fill="#222222"/>
</svg>
